<svg width="468" height="158" viewBox="0 0 468 158" fill="none" xmlns="http://www.w3.org/2000/svg">
<path d="M150.738 36.5507C163.106 21.3067 181.983 11.5613 203.142 11.5613C240.394 11.5613 270.593 41.76 270.593 79.0093C270.593 116.263 240.394 146.461 203.142 146.461C183.667 146.461 166.121 138.201 153.807 125.001C168.105 144.44 191.134 157.059 217.115 157.059C260.486 157.059 295.645 121.9 295.645 78.5293C295.645 35.1573 260.486 0 217.115 0C189.185 0 164.659 14.5827 150.738 36.5507Z" fill="url(#paint0_linear_3_4)"/>
<path d="M42.136 91.7937V75.523H76.0333V117.034H60.0747L59.032 109.732C56.8773 112.167 54.4067 114.114 51.6267 115.574C47.3853 117.798 42.4133 118.911 36.7133 118.911C25.1693 118.911 16.0613 115.187 9.38666 107.736C3.12933 100.775 0 91.6897 0 80.479C0 68.6444 3.164 59.071 9.492 51.7604C16.5133 43.615 26.456 39.5417 39.3213 39.5417C48.984 39.5417 56.9813 41.9844 63.308 46.8697C69.6347 51.755 73.5293 58.631 74.9907 67.4924H51.5227C50.7573 64.751 49.4013 62.539 47.4547 60.8497C45.1613 58.8817 42.3093 57.8977 38.9027 57.8977C34.452 57.8977 30.9587 59.779 28.4213 63.5444C25.8827 67.3084 24.6133 72.8137 24.6133 80.0617C24.6133 86.127 25.692 90.867 27.848 94.2817C30.4893 98.463 34.6613 100.554 40.364 100.554C43.2827 100.554 45.9587 99.739 48.3933 98.103C50.828 96.471 52.3573 94.367 52.984 91.7937H42.136Z" fill="black"/>
<path d="M88.0253 41.627H149.351V59.1497H112.743V69.995H143.615V87.5177H112.743V99.303H150.812V116.824H88.0253V41.627Z" fill="black"/>
<path d="M299.707 108.242L323.942 41.6297L334.783 41.627V116.826H327.691V49.2417L302.764 116.826H296.092L271.163 49.2417V116.826H264.071V41.627L274.912 41.6297L299.707 108.242Z" fill="black"/>
<path d="M360.189 87.3093H389.717L374.946 47.7107L360.189 87.3093ZM392.055 93.1507H357.787L348.834 116.813L341.771 116.825L371.287 41.6266H379.213L407.897 116.825L400.855 116.805L392.055 93.1507Z" fill="black"/>
<path d="M422.392 47.7807V77.5047H440.54C448.327 77.5047 453.749 75.8727 456.811 72.6034C459.035 70.2407 460.147 66.6581 460.147 61.8607C460.147 57.2714 458.564 53.7781 455.403 51.3794C452.239 48.9794 447.353 47.7807 440.749 47.7807H422.392ZM422.392 83.6594V116.825H415.301V41.6274H443.252C450.413 41.6274 455.976 42.9487 459.939 45.5901C464.807 48.8594 467.239 54.1421 467.239 61.4434C467.239 69.3701 464.283 75.2461 458.373 79.0701C453.644 82.1301 447.387 83.6594 439.6 83.6594H422.392Z" fill="black"/>
<path d="M234.516 80.2996C234.516 97.4783 220.59 111.409 203.41 111.409C186.227 111.409 172.303 97.4783 172.303 80.2996C172.303 63.1196 186.227 49.1903 203.41 49.1903C220.59 49.1903 234.516 63.1196 234.516 80.2996Z" fill="white"/>
<path d="M183.341 58.9093C185.362 58.8906 187.418 58.9587 189.495 59.1013C194.206 54.636 200.415 51.556 207.878 51.32C206.375 51.0867 204.875 50.9733 203.39 50.972C195.873 50.972 188.713 53.8813 183.341 58.9093ZM191.353 59.24C193.351 59.4227 195.37 59.6813 197.391 60.0053C199.834 56.864 202.719 54.292 206.006 52.8C200.219 53.3973 195.29 55.8173 191.353 59.24ZM198.966 60.2773C201.941 60.8066 204.913 61.4787 207.839 62.292L210.527 52.864C206.151 53.476 202.227 56.3053 198.966 60.2773ZM209.139 62.6613C212.074 63.5213 214.954 64.5173 217.741 65.6333C217.063 60.5373 215.222 56.0627 211.823 53.2347L209.139 62.6613ZM226.901 69.9546C228.599 70.8906 230.237 71.8707 231.793 72.9013C229.545 64.3227 223.458 56.9693 214.937 53.3387C221.331 57.5573 225.131 63.5466 226.901 69.9546ZM219.225 66.2413C221.287 67.1107 223.289 68.0413 225.217 69.0413C223.555 63.916 220.474 59.148 215.665 55.5107C217.697 58.5253 218.802 62.256 219.225 66.2413ZM181.974 60.2813C179.037 63.4213 176.751 67.2533 175.399 71.6227L180.675 73.128C182.173 68.5733 184.73 64.084 188.23 60.3693C186.814 60.292 185.409 60.252 184.018 60.252C183.333 60.252 182.651 60.2627 181.974 60.2813ZM181.974 73.4946L189.615 75.6733C191.07 70.8 193.386 65.58 196.482 61.2306C194.313 60.8986 192.151 60.648 190.006 60.484C186.247 64.1826 183.527 68.804 181.974 73.4946ZM190.911 76.044L202.946 79.4693L207.471 63.5853C204.357 62.7213 201.195 62.008 198.029 61.4693C194.902 65.648 192.461 70.8613 190.911 76.044ZM204.243 79.8413L216.277 83.2693C217.691 78.0507 218.362 72.3387 217.91 67.1427C214.961 65.932 211.894 64.8693 208.769 63.9533L204.243 79.8413ZM217.574 83.64L226.045 86.0533C227.045 81.2213 227.039 75.916 225.737 70.856C223.694 69.7507 221.558 68.716 219.351 67.764C219.686 73.0867 218.905 78.7347 217.574 83.64ZM227.346 86.4227L231.79 87.6867C232.921 83.352 233.019 78.9827 232.227 74.8387C230.679 73.7533 229.047 72.7107 227.331 71.7267C228.399 76.6587 228.323 81.756 227.346 86.4227ZM174.665 86.144C176.199 87.1586 177.783 88.1413 179.443 89.0653C178.597 84.1667 178.99 79.2027 180.141 74.9013C180.185 74.74 180.234 74.5773 180.282 74.416L175.029 72.92C173.865 77.3893 173.795 81.8906 174.665 86.144ZM181.446 75.2507C180.255 79.6853 179.911 84.8547 180.982 89.888C183.075 90.9947 185.247 92.028 187.478 92.9786C187.118 87.6173 187.905 81.9147 189.243 76.9693L181.578 74.7853C181.534 74.9413 181.485 75.096 181.446 75.2507ZM188.922 93.5933C191.883 94.8 194.933 95.8507 198.021 96.7573L202.575 80.768L190.542 77.3387C189.118 82.5987 188.446 88.3626 188.922 93.5933ZM199.318 97.1253C202.443 97.992 205.594 98.7 208.725 99.2267C211.883 95.0307 214.347 89.7827 215.907 84.5653L203.873 81.1386L199.318 97.1253ZM210.279 99.4573C213.241 99.9013 216.173 100.197 219.027 100.299C222.05 96.9013 224.141 92.8507 225.318 88.9507C225.477 88.432 225.615 87.904 225.747 87.3693L217.203 84.936C215.739 89.84 213.405 95.0933 210.279 99.4573ZM226.61 89.3413C225.326 93.5907 223.359 97.2813 220.865 100.321C222.241 100.332 223.597 100.309 224.925 100.239C227.823 97.1173 230.081 93.3146 231.421 88.984L227.047 87.74C226.91 88.2787 226.769 88.8147 226.61 89.3413ZM191.239 107C184.725 102.789 181.225 96.9027 179.789 90.776C178.178 89.9093 176.618 89 175.113 88.052C177.367 96.268 183.161 103.325 191.239 107ZM191.443 105.517C189.25 102.469 188.063 98.6213 187.61 94.5013C185.493 93.62 183.421 92.668 181.418 91.6453C182.897 96.872 186.015 101.828 191.443 105.517ZM194.998 107.375L197.655 98.0493C194.753 97.2 191.891 96.2107 189.094 95.1013C189.787 100.145 191.626 104.572 194.998 107.375ZM196.295 107.744C200.638 107.137 204.534 104.343 207.783 100.417C204.839 99.8987 201.883 99.2307 198.949 98.416L196.295 107.744ZM199.022 108.5C207.105 108.981 213.345 105.989 217.821 101.577C215.05 101.432 212.219 101.136 209.366 100.687C206.498 104.345 203.031 107.225 199.022 108.5ZM219.701 101.656C215.618 106.031 210.323 108.804 204.357 109.627C211.563 109.397 218.383 106.5 223.538 101.643C222.274 101.679 221.001 101.689 219.701 101.656Z" fill="url(#paint1_linear_3_4)"/>
<path d="M203.408 109.309C187.413 109.309 174.397 96.296 174.397 80.3C174.397 64.304 187.413 51.2893 203.408 51.2893C219.405 51.2893 232.419 64.304 232.419 80.3C232.419 96.296 219.405 109.309 203.408 109.309ZM203.408 35.3627C178.629 35.3627 158.471 55.5213 158.471 80.3C158.471 105.077 178.629 125.236 203.408 125.236C228.189 125.236 248.348 105.077 248.348 80.3C248.348 55.5213 228.189 35.3627 203.408 35.3627Z" fill="#231F20"/>
<defs>
<linearGradient id="paint0_linear_3_4" x1="63.6391" y1="51.0944" x2="255.79" y2="295.64" gradientUnits="userSpaceOnUse">
<stop stop-color="#A6CE38"/>
<stop offset="1" stop-color="#00AB4E"/>
</linearGradient>
<linearGradient id="paint1_linear_3_4" x1="8.81193" y1="57.3368" x2="291.427" y2="296.826" gradientUnits="userSpaceOnUse">
<stop stop-color="#7AC25E"/>
<stop offset="1" stop-color="#00AA75"/>
</linearGradient>
</defs>
</svg>
