<svg width="91" height="91" viewBox="0 0 91 91" fill="none" xmlns="http://www.w3.org/2000/svg">
<path d="M76.516 45.2996C76.516 62.4783 62.59 76.409 45.41 76.409C28.227 76.409 14.303 62.4783 14.303 45.2996C14.303 28.1196 28.227 14.1903 45.41 14.1903C62.59 14.1903 76.516 28.1196 76.516 45.2996Z" fill="white"/>
<path d="M25.341 23.9093C27.362 23.8906 29.418 23.9587 31.495 24.1013C36.206 19.636 42.415 16.556 49.878 16.32C48.375 16.0867 46.875 15.9733 45.39 15.972C37.873 15.972 30.713 18.8813 25.341 23.9093ZM33.353 24.24C35.351 24.4227 37.37 24.6813 39.391 25.0053C41.834 21.864 44.719 19.292 48.006 17.8C42.219 18.3973 37.29 20.8173 33.353 24.24ZM40.966 25.2773C43.941 25.8066 46.913 26.4787 49.839 27.292L52.527 17.864C48.151 18.476 44.227 21.3053 40.966 25.2773ZM51.139 27.6613C54.074 28.5213 56.954 29.5173 59.741 30.6333C59.063 25.5373 57.222 21.0627 53.823 18.2347L51.139 27.6613ZM68.901 34.9546C70.599 35.8906 72.237 36.8707 73.793 37.9013C71.545 29.3227 65.458 21.9693 56.937 18.3387C63.331 22.5573 67.131 28.5466 68.901 34.9546ZM61.225 31.2413C63.287 32.1107 65.289 33.0413 67.217 34.0413C65.555 28.916 62.474 24.148 57.665 20.5107C59.697 23.5253 60.802 27.256 61.225 31.2413ZM23.974 25.2813C21.037 28.4213 18.751 32.2533 17.399 36.6227L22.675 38.128C24.173 33.5733 26.73 29.084 30.23 25.3693C28.814 25.292 27.409 25.252 26.018 25.252C25.333 25.252 24.651 25.2627 23.974 25.2813ZM23.974 38.4946L31.615 40.6733C33.07 35.8 35.386 30.58 38.482 26.2306C36.313 25.8986 34.151 25.648 32.006 25.484C28.247 29.1826 25.527 33.804 23.974 38.4946ZM32.911 41.044L44.946 44.4693L49.471 28.5853C46.357 27.7213 43.195 27.008 40.029 26.4693C36.902 30.648 34.461 35.8613 32.911 41.044ZM46.243 44.8413L58.277 48.2693C59.691 43.0507 60.362 37.3387 59.91 32.1427C56.961 30.932 53.894 29.8693 50.769 28.9533L46.243 44.8413ZM59.574 48.64L68.045 51.0533C69.045 46.2213 69.039 40.916 67.737 35.856C65.694 34.7507 63.558 33.716 61.351 32.764C61.686 38.0867 60.905 43.7347 59.574 48.64ZM69.346 51.4227L73.79 52.6867C74.921 48.352 75.019 43.9827 74.227 39.8387C72.679 38.7533 71.047 37.7107 69.331 36.7267C70.399 41.6587 70.323 46.756 69.346 51.4227ZM16.665 51.144C18.199 52.1586 19.783 53.1413 21.443 54.0653C20.597 49.1667 20.99 44.2027 22.141 39.9013C22.185 39.74 22.234 39.5773 22.282 39.416L17.029 37.92C15.865 42.3893 15.795 46.8906 16.665 51.144ZM23.446 40.2507C22.255 44.6853 21.911 49.8547 22.982 54.888C25.075 55.9947 27.247 57.028 29.478 57.9786C29.118 52.6173 29.905 46.9147 31.243 41.9693L23.578 39.7853C23.534 39.9413 23.485 40.096 23.446 40.2507ZM30.922 58.5933C33.883 59.8 36.933 60.8507 40.021 61.7573L44.575 45.768L32.542 42.3387C31.118 47.5987 30.446 53.3626 30.922 58.5933ZM41.318 62.1253C44.443 62.992 47.594 63.7 50.725 64.2267C53.883 60.0307 56.347 54.7827 57.907 49.5653L45.873 46.1386L41.318 62.1253ZM52.279 64.4573C55.241 64.9013 58.173 65.197 61.027 65.299C64.05 61.9013 66.141 57.8507 67.318 53.9507C67.477 53.432 67.615 52.904 67.747 52.3693L59.203 49.936C57.739 54.84 55.405 60.0933 52.279 64.4573ZM68.61 54.3413C67.326 58.5907 65.359 62.2813 62.865 65.321C64.241 65.332 65.597 65.309 66.925 65.239C69.823 62.1173 72.081 58.3146 73.421 53.984L69.047 52.74C68.91 53.2787 68.769 53.8147 68.61 54.3413ZM33.239 72C26.725 67.789 23.225 61.9027 21.789 55.776C20.178 54.9093 18.618 54 17.113 53.052C19.367 61.268 25.161 68.325 33.239 72ZM33.443 70.517C31.25 67.469 30.063 63.6213 29.61 59.5013C27.493 58.62 25.421 57.668 23.418 56.6453C24.897 61.872 28.015 66.828 33.443 70.517ZM36.998 72.375L39.655 63.0493C36.753 62.2 33.891 61.2107 31.094 60.1013C31.787 65.145 33.626 69.572 36.998 72.375ZM38.295 72.744C42.638 72.137 46.534 69.343 49.783 65.417C46.839 64.8987 43.883 64.2307 40.949 63.416L38.295 72.744ZM41.022 73.5C49.105 73.981 55.345 70.989 59.821 66.577C57.05 66.432 54.219 66.136 51.366 65.687C48.498 69.345 45.031 72.225 41.022 73.5ZM61.701 66.656C57.618 71.031 52.323 73.804 46.357 74.627C53.563 74.397 60.383 71.5 65.538 66.643C64.274 66.679 63.001 66.689 61.701 66.656Z" fill="url(#paint0_linear_5_67)"/>
<path d="M45.408 74.309C29.413 74.309 16.397 61.296 16.397 45.3C16.397 29.304 29.413 16.2893 45.408 16.2893C61.405 16.2893 74.419 29.304 74.419 45.3C74.419 61.296 61.405 74.309 45.408 74.309ZM45.408 0.362701C20.629 0.362701 0.471008 20.5213 0.471008 45.3C0.471008 70.077 20.629 90.236 45.408 90.236C70.189 90.236 90.348 70.077 90.348 45.3C90.348 20.5213 70.189 0.362701 45.408 0.362701Z" fill="#231F20"/>
<defs>
<linearGradient id="paint0_linear_5_67" x1="2.16605" y1="33.1723" x2="88.557" y2="57.7817" gradientUnits="userSpaceOnUse">
<stop stop-color="#7AC25E"/>
<stop offset="1" stop-color="#00AA75"/>
</linearGradient>
</defs>
</svg>
